<svg width="16" height="16" viewBox="0 0 16 16" fill="none" xmlns="http://www.w3.org/2000/svg">
<path opacity="0.4" d="M8 14.6667C11.6819 14.6667 14.6667 11.6819 14.6667 8.00001C14.6667 4.31811 11.6819 1.33334 8 1.33334C4.3181 1.33334 1.33333 4.31811 1.33333 8.00001C1.33333 11.6819 4.3181 14.6667 8 14.6667Z" fill="#42CD3F"/>
<path d="M11.2266 8.84666L10.2533 8.28666C10.0333 8.15999 10.0333 7.83999 10.2533 7.70666L11.2266 7.14666C11.6466 6.90666 11.7866 6.36666 11.5466 5.94666C11.3066 5.52666 10.7666 5.38666 10.3466 5.62666L9.3733 6.18666C9.1533 6.31333 8.8733 6.15333 8.8733 5.89999V4.77999C8.8733 4.29999 8.47997 3.89999 7.9933 3.89999C7.50663 3.89999 7.1133 4.29333 7.1133 4.77999V5.89999C7.1133 6.15333 6.8333 6.31999 6.6133 6.18666L5.63997 5.62666C5.21997 5.38666 4.67997 5.52666 4.43997 5.94666C4.19997 6.36666 4.33997 6.90666 4.75997 7.14666L5.7333 7.70666C5.9533 7.83333 5.9533 8.15333 5.7333 8.28666L4.75997 8.84666C4.33997 9.08666 4.19997 9.62666 4.43997 10.0467C4.67997 10.4667 5.21997 10.6067 5.63997 10.3667L6.6133 9.80666C6.8333 9.67999 7.1133 9.83999 7.1133 10.0933V11.2133C7.1133 11.6933 7.50663 12.0933 7.9933 12.0933C8.47997 12.0933 8.8733 11.7 8.8733 11.2133V10.0933C8.8733 9.83999 9.1533 9.67333 9.3733 9.80666L10.3466 10.3667C10.7666 10.6067 11.3066 10.4667 11.5466 10.0467C11.7933 9.63333 11.6466 9.09333 11.2266 8.84666Z" fill="#42CD3F"/>
</svg>
