<svg width="16" height="16" viewBox="0 0 16 16" fill="none" xmlns="http://www.w3.org/2000/svg">
<path opacity="0.4" d="M8.00001 14.6667C11.6819 14.6667 14.6667 11.6819 14.6667 8.00001C14.6667 4.31811 11.6819 1.33334 8.00001 1.33334C4.31811 1.33334 1.33334 4.31811 1.33334 8.00001C1.33334 11.6819 4.31811 14.6667 8.00001 14.6667Z" fill="#DEC233"/>
<path d="M11.2266 8.84666L10.2533 8.28666C10.0333 8.15999 10.0333 7.83999 10.2533 7.70666L11.2266 7.14666C11.6466 6.90666 11.7866 6.36666 11.5466 5.94666C11.3066 5.52666 10.7666 5.38666 10.3466 5.62666L9.37328 6.18666C9.15328 6.31333 8.87328 6.15333 8.87328 5.89999V4.77999C8.87328 4.29999 8.47995 3.89999 7.99328 3.89999C7.50662 3.89999 7.11328 4.29333 7.11328 4.77999V5.89999C7.11328 6.15333 6.83328 6.31999 6.61328 6.18666L5.63995 5.62666C5.21995 5.38666 4.67995 5.52666 4.43995 5.94666C4.19995 6.36666 4.33995 6.90666 4.75995 7.14666L5.73328 7.70666C5.95328 7.83333 5.95328 8.15333 5.73328 8.28666L4.75995 8.84666C4.33995 9.08666 4.19995 9.62666 4.43995 10.0467C4.67995 10.4667 5.21995 10.6067 5.63995 10.3667L6.61328 9.80666C6.83328 9.67999 7.11328 9.83999 7.11328 10.0933V11.2133C7.11328 11.6933 7.50662 12.0933 7.99328 12.0933C8.47995 12.0933 8.87328 11.7 8.87328 11.2133V10.0933C8.87328 9.83999 9.15328 9.67333 9.37328 9.80666L10.3466 10.3667C10.7666 10.6067 11.3066 10.4667 11.5466 10.0467C11.7933 9.63333 11.6466 9.09333 11.2266 8.84666Z" fill="#DEC233"/>
</svg>
