<svg width="65" height="65" viewBox="0 0 65 65" fill="none" xmlns="http://www.w3.org/2000/svg">
<g id="vuesax/linear/headphone">
<g id="vuesax/linear/headphone_2">
<g id="headphone">
<path id="Vector" d="M15.06 50.2736V42.4869C15.06 39.9003 17.0867 37.5803 19.9667 37.5803C22.5533 37.5803 24.8733 39.6069 24.8733 42.4869V49.9803C24.8733 55.1803 20.5533 59.5003 15.3533 59.5003C10.1533 59.5003 5.83334 55.1536 5.83334 49.9803V33.5536C5.54 18.5669 17.38 6.43359 32.3667 6.43359C47.3533 6.43359 59.1667 18.5669 59.1667 33.2603V49.6869C59.1667 54.8869 54.8467 59.2069 49.6467 59.2069C44.4467 59.2069 40.1267 54.8869 40.1267 49.6869V42.1936C40.1267 39.6069 42.1533 37.2869 45.0333 37.2869C47.62 37.2869 49.94 39.3136 49.94 42.1936V50.2736" stroke="#292D32" stroke-width="1.5" stroke-linecap="round" stroke-linejoin="round"/>
</g>
</g>
</g>
</svg>
